# xmcd
#
# Track frame offsets: 
#        150
#        16467
#        30029
#        43546
#        63439
#        85011
#        104909
#        121015
#        136093
#        155798
#        178117
#        193773
#        213926
#
# Disc length: 3094 seconds
#
# Revision: 0
# Processed by: cddbd v1.5.2PL0 Copyright (c) Steve Scherf et al.
# Submitted via: ExactAudioCopy v1.0b1
#
DISCID=a90c140d
DTITLE=Bluesaholics - back in blue
DYEAR=2011
DGENRE=Blues
TTITLE0=Fortune Blues
TTITLE1=Talk Dirty
TTITLE2=Läblose Gägestand
TTITLE3=Not like This
TTITLE4=Recall
TTITLE5=Until You Save Me
TTITLE6=Anything You Do
TTITLE7=Rägeboge (have you ever seen the rain)
TTITLE8=The Reason
TTITLE9=Anything You Say
TTITLE10=Just A Fool
TTITLE11=Spider
TTITLE12=Why Don't We Try
EXTD=
EXTT0=
EXTT1=
EXTT2=
EXTT3=
EXTT4=
EXTT5=
EXTT6=
EXTT7=
EXTT8=
EXTT9=
EXTT10=
EXTT11=
EXTT12=
PLAYORDER=
